<?xml version="1.0" standalone="no"?>
<!DOCTYPE svg PUBLIC "-//W3C//DTD SVG 20010904//EN"
 "http://www.w3.org/TR/2001/REC-SVG-20010904/DTD/svg10.dtd">
<svg version="1.0" xmlns="http://www.w3.org/2000/svg"
 width="178.000000pt" height="169.000000pt" viewBox="0 0 178.000000 169.000000"
 preserveAspectRatio="xMidYMid meet">
<metadata>
Created by potrace 1.10, written by Peter Selinger 2001-2011
</metadata>
<g transform="translate(0.000000,169.000000) scale(0.100000,-0.100000)"
fill="#000000" stroke="none">
<path d="M936 1655 c-37 -20 -53 -42 -61 -82 -3 -18 -7 -33 -8 -33 -1 0 -54
-9 -117 -20 -63 -11 -118 -20 -122 -20 -4 0 -14 13 -22 28 -18 34 -54 52 -106
52 -29 0 -45 -7 -68 -30 -41 -41 -49 -81 -24 -128 l19 -37 -80 -98 c-60 -72
-85 -96 -96 -91 -84 37 -171 -18 -171 -108 0 -38 36 -85 74 -99 l36 -13 0
-126 0 -126 -34 -12 c-38 -14 -76 -65 -76 -101 0 -40 28 -89 61 -106 29 -15
45 -16 111 -3 12 2 43 -27 97 -91 l79 -95 -20 -38 c-23 -44 -19 -79 15 -121
43 -55 152 -46 183 15 14 26 20 29 47 24 18 -3 73 -13 123 -22 l91 -16 12 -38
c6 -21 26 -51 43 -65 79 -67 203 15 177 116 -6 25 -2 30 70 70 42 24 91 53
110 66 l35 22 23 -24 c56 -55 140 -36 174 39 18 42 19 47 3 86 -9 22 -26 47
-37 55 -20 14 -20 15 24 131 l44 117 39 2 c31 2 47 10 73 38 37 41 44 88 18
136 -16 32 -77 65 -106 58 -23 -6 -26 -1 -73 129 l-36 102 29 31 c38 41 44 76
21 129 -32 72 -112 90 -175 41 l-25 -21 -68 38 c-146 82 -147 83 -144 136 3
39 -1 51 -25 78 -34 38 -93 49 -137 25z m109 -21 c36 -23 49 -74 31 -117 -17
-42 -41 -57 -91 -57 -45 0 -95 45 -95 85 0 32 24 81 47 94 27 16 81 13 108 -5z
m-467 -98 c38 -37 35 -101 -7 -138 -36 -32 -70 -35 -111 -11 -60 35 -66 99
-15 150 31 31 40 35 72 30 20 -4 48 -17 61 -31z m302 -25 c0 -5 -26 -25 -58
-45 l-59 -35 -64 11 c-115 20 -108 34 29 59 114 20 152 22 152 10z m24 -30 c4
-5 -5 -22 -18 -38 -21 -25 -30 -28 -61 -25 -41 5 -38 12 22 48 44 26 50 27 57
15z m299 -61 c121 -70 127 -88 24 -70 -62 11 -69 15 -112 66 -26 29 -43 58
-40 64 4 6 9 9 13 7 4 -2 56 -32 115 -67z m-263 29 c0 -26 -20 -47 -40 -42
-21 6 -21 6 1 29 24 26 39 31 39 13z m159 -39 l36 -43 -35 7 c-43 8 -48 13
-56 55 -9 45 8 39 55 -19z m-414 20 c22 -6 62 -13 89 -16 75 -7 79 -13 41 -57
l-34 -39 -46 28 -47 27 27 14 c15 8 25 17 22 20 -3 2 -18 -2 -34 -11 -27 -13
-32 -13 -61 6 -56 35 -37 47 43 28z m295 -14 c0 -19 -4 -23 -20 -19 -22 6 -22
6 -14 27 10 25 34 19 34 -8z m51 -2 c12 -32 10 -34 -18 -23 -15 5 -20 14 -16
28 7 29 22 26 34 -5z m449 -39 c38 -38 35 -98 -8 -136 -20 -18 -43 -29 -62
-29 -19 0 -42 11 -62 29 -27 24 -33 36 -33 69 0 90 101 131 165 67z m-841 11
l24 -13 -23 -13 c-20 -11 -25 -10 -37 6 -26 35 -9 45 36 20z m278 0 c3 -2 -37
-109 -42 -114 -4 -4 -74 32 -75 39 0 3 15 24 32 48 28 35 37 41 58 36 14 -4
26 -8 27 -9z m63 -76 c0 -65 -1 -68 -26 -74 -15 -4 -33 -2 -42 6 -10 7 -18 13
-20 14 -3 1 35 111 43 123 3 5 14 7 25 4 18 -5 20 -14 20 -73z m-542 -14 c-22
-64 -26 -68 -85 -101 -34 -19 -64 -35 -67 -35 -18 0 -1 33 42 81 26 30 62 74
81 97 46 59 58 42 29 -42z m629 19 l20 -52 -43 -10 c-24 -6 -45 -9 -46 -7 -2
1 -2 31 0 67 3 61 5 64 27 59 17 -3 28 -17 42 -57z m-468 41 c10 -12 8 -17 -7
-25 -20 -10 -32 1 -32 30 0 14 26 11 39 -5z m-99 -35 c0 -30 -5 -42 -25 -55
-41 -27 -42 -20 -9 61 19 44 34 42 34 -6z m51 11 c6 -17 4 -24 -12 -33 -27
-14 -32 -7 -24 31 8 35 24 36 36 2z m176 2 l44 -26 -24 -31 c-13 -17 -28 -32
-33 -33 -5 -2 -26 19 -46 46 -34 44 -36 50 -20 59 25 15 31 14 79 -15z m445
-10 c15 -15 28 -31 28 -35 0 -4 -16 -10 -36 -13 -19 -4 -41 -9 -49 -12 -8 -4
-18 11 -29 42 -9 26 -16 50 -16 52 0 15 78 -12 102 -34z m111 0 c27 -8 20 -23
-15 -32 -40 -11 -48 -8 -72 25 l-19 25 44 -7 c24 -3 52 -9 62 -11z m-583 -100
c0 -19 -37 -46 -60 -42 -17 2 -27 17 -42 62 -20 57 -20 60 -2 73 16 12 22 8
60 -34 24 -27 43 -53 44 -59z m-116 16 c10 -34 17 -62 15 -64 -2 -2 -22 -6
-45 -9 l-40 -7 1 55 c0 42 5 58 20 69 11 9 22 15 25 16 3 0 13 -27 24 -60z
m249 35 c60 -31 45 -56 -42 -69 -66 -10 -78 6 -39 55 18 22 34 38 37 36 3 -1
23 -11 44 -22z m472 -5 c3 -5 -6 -15 -20 -22 -21 -10 -28 -9 -35 2 -5 8 -6 18
-4 22 7 11 52 10 59 -2z m-70 -20 c21 -24 24 -20 -43 -59 l-53 -31 -8 23 c-25
66 -25 65 21 75 62 14 63 14 83 -8z m-735 -44 l0 -53 -47 -6 c-27 -3 -49 -4
-51 -3 -1 2 4 19 11 40 11 31 54 73 80 75 4 1 7 -23 7 -53z m611 -11 c16 -42
16 -45 -1 -50 -22 -7 -114 45 -118 67 -2 11 10 18 45 25 26 5 50 8 53 6 2 -2
12 -24 21 -48z m207 16 c-14 -20 -16 -20 -29 -5 -11 14 -10 18 6 30 26 19 42
2 23 -25z m-339 -66 c1 -63 -2 -85 -11 -85 -7 0 -24 -9 -38 -20 -14 -11 -28
-20 -31 -20 -3 0 -20 18 -37 39 l-31 39 19 53 c14 43 24 55 46 61 15 4 35 3
45 -2 24 -14 29 -12 23 5 -4 8 -2 15 4 15 5 0 10 -37 11 -85z m375 31 c-7 -30
-16 -33 -34 -11 -10 13 -9 19 5 35 23 25 38 12 29 -24z m-75 20 c10 -12 5 -24
-26 -65 -41 -53 -61 -61 -85 -33 -30 34 -26 46 26 79 59 36 69 38 85 19z
m-879 0 c0 -1 -5 -17 -11 -35 -8 -23 -17 -31 -34 -31 -13 0 -30 -3 -39 -6 -35
-13 -14 26 27 49 41 24 57 31 57 23z m450 -2 c0 -3 -9 -26 -19 -52 -11 -26
-27 -67 -35 -92 -14 -45 -15 -45 -58 -42 -51 3 -59 11 -83 76 l-18 49 27 24
c39 33 70 29 111 -14 19 -21 35 -33 35 -27 0 6 -11 21 -25 34 -32 30 -31 38 3
43 46 7 62 7 62 1z m550 -56 l-1 -63 -24 28 c-14 16 -23 32 -20 36 2 5 9 20
14 35 18 45 31 29 31 -36z m80 -43 c20 -55 40 -110 44 -122 13 -40 -18 -27
-62 26 -41 49 -42 51 -42 126 0 52 4 75 11 73 6 -2 28 -49 49 -103z m-1221 69
c26 -21 31 -33 31 -68 0 -95 -105 -135 -165 -64 -35 42 -34 91 4 129 39 38 87
39 130 3z m810 -24 c22 0 10 -15 -29 -37 -21 -13 -40 -23 -42 -23 -2 0 -1 85
1 98 1 2 14 -6 30 -17 16 -12 34 -21 40 -21z m250 -63 c-10 -26 -19 -50 -19
-53 0 -4 -60 28 -79 42 -2 2 15 26 39 54 l42 50 18 -22 c17 -22 17 -24 -1 -71z
m-699 66 c0 -10 -17 -38 -38 -62 -49 -57 -70 -52 -68 16 2 46 4 48 37 54 60
11 69 10 69 -8z m-120 -48 l0 -45 -42 6 c-85 14 -89 16 -75 44 8 17 24 27 47
31 70 13 70 13 70 -36z m640 25 c0 -5 -8 -7 -17 -4 -12 4 -9 -2 8 -17 43 -39
43 -56 2 -110 -23 -31 -43 -47 -53 -45 -8 3 -30 7 -47 11 -32 6 -33 8 -33 58
l1 52 62 36 c59 34 77 38 77 19z m-770 -12 c0 -25 -16 -37 -38 -31 -12 3 -22
11 -22 18 0 12 9 16 53 24 4 0 7 -5 7 -11z m275 -34 c8 -20 15 -40 15 -45 0
-8 -78 -2 -88 7 -4 2 50 74 55 74 2 0 10 -16 18 -36z m730 9 c18 -21 24 -40
25 -75 l0 -47 -45 26 c-25 14 -44 30 -41 37 3 6 10 28 17 49 7 20 14 37 16 37
2 0 15 -12 28 -27z m-507 -80 c-11 -13 -68 -18 -68 -7 0 4 5 25 12 46 l12 40
27 -33 c20 -25 25 -37 17 -46z m-518 48 c0 -3 -4 -12 -8 -18 -7 -10 -12 -10
-27 0 -22 17 -12 37 15 30 11 -3 20 -8 20 -12z m150 -47 c0 -54 -22 -61 -83
-29 -68 36 -71 39 -59 62 10 17 16 18 76 9 65 -10 66 -10 66 -42z m480 0 c0
-42 -1 -45 -22 -39 -13 4 -31 15 -42 25 -18 18 -18 19 20 39 22 11 40 20 42
21 1 0 2 -21 2 -46z m274 25 c20 -12 36 -22 36 -23 0 -1 -7 -23 -16 -48 -20
-61 -44 -55 -68 17 -26 76 -14 91 48 54z m-940 -12 c14 -10 16 -20 11 -37 l-7
-23 -19 24 c-32 41 -22 63 15 36z m357 -16 c5 -5 29 -82 29 -92 0 -3 -19 -15
-43 -28 l-43 -23 -52 32 c-59 36 -68 67 -30 107 20 22 28 23 78 17 30 -3 58
-9 61 -13z m539 -77 c0 -3 -84 17 -88 21 -2 2 9 19 24 39 l28 35 18 -47 c10
-26 18 -48 18 -48z m279 1 c-6 -6 -19 -3 -37 7 -21 13 -28 26 -30 55 l-3 38
40 -45 c25 -28 36 -49 30 -55z m-1200 46 c18 -24 19 -33 10 -60 -13 -38 -17
-36 -40 28 -23 67 -7 85 30 32z m115 -5 l56 -33 -28 -36 c-15 -20 -29 -36 -32
-36 -3 0 -20 20 -38 44 -24 34 -31 51 -26 70 3 14 7 25 9 25 1 0 28 -15 59
-34z m342 24 c31 0 33 -33 2 -54 -30 -21 -35 -20 -42 8 -3 13 -9 32 -13 42 -5
14 -3 16 11 11 10 -4 29 -7 42 -7z m654 -73 c0 -26 -3 -28 -27 -23 -16 3 -44
8 -64 11 l-36 7 16 43 15 44 48 -27 c40 -22 48 -32 48 -55z m-1151 7 c26 -69
26 -79 0 -148 -36 -94 -49 -75 -49 74 0 149 13 168 49 74z m703 3 c21 -24 27
-43 27 -77 0 -135 -181 -163 -227 -35 -12 35 -12 44 2 78 36 83 142 101 198
34z m101 9 l28 -7 -28 -35 -27 -36 -17 24 c-15 18 -18 41 -10 65 1 1 7 1 14
-1 6 -3 25 -7 40 -10z m593 -17 c36 -34 34 -101 -5 -140 -33 -33 -67 -37 -111
-14 -36 19 -50 43 -50 87 0 38 22 75 54 89 32 13 86 3 112 -22z m-1257 -69 c0
-3 -15 -22 -34 -44 l-34 -39 -12 29 c-6 16 -11 40 -11 54 0 14 5 38 11 54 l12
29 34 -39 c19 -22 34 -41 34 -44z m784 65 c40 -6 47 -11 52 -36 4 -16 4 -42 0
-57 -5 -25 -12 -29 -63 -39 l-57 -11 -32 36 c-18 21 -33 39 -33 42 0 15 64 81
75 76 7 -2 33 -7 58 -11z m280 1 c25 -19 21 -36 -8 -36 -20 0 -25 5 -25 25 0
28 7 30 33 11z m-955 -63 c-4 -80 -18 -90 -61 -38 l-28 34 28 36 c15 19 36 35
46 35 16 0 18 -8 15 -67z m65 22 c20 -10 37 -22 37 -25 0 -3 -17 -15 -37 -25
-21 -11 -41 -21 -44 -22 -3 -2 -5 19 -5 47 0 28 2 49 5 47 3 -1 23 -11 44 -22z
m790 8 c43 -5 47 -8 47 -32 0 -25 -4 -27 -66 -37 -64 -9 -67 -9 -77 13 -14 32
6 78 31 68 9 -3 38 -9 65 -12z m-635 -27 c5 -41 -10 -50 -46 -29 -18 10 -32
20 -32 23 0 8 54 38 65 36 6 -2 11 -15 13 -30z m325 -36 l38 -49 -28 -7 c-15
-3 -34 -7 -41 -10 -21 -6 -27 27 -10 57 13 23 14 27 2 22 -9 -3 -14 2 -14 16
0 31 11 25 53 -29z m413 39 c3 -6 0 -15 -7 -20 -22 -14 -29 -11 -29 11 0 21
24 27 36 9z m-996 -88 c0 -4 -25 -19 -56 -35 -46 -24 -57 -27 -65 -15 -13 21
-12 26 24 74 l32 43 33 -31 c17 -17 32 -33 32 -36z m199 47 c20 -12 37 -23 39
-24 9 -6 -23 -86 -37 -94 -9 -4 -37 -11 -62 -15 -42 -6 -48 -5 -68 21 -33 42
-24 73 29 105 56 34 55 34 99 7z m-349 -60 c21 -59 22 -62 4 -75 -36 -26 -45
-10 -18 32 9 14 12 25 6 25 -5 0 -16 -10 -24 -22 -8 -12 -19 -18 -26 -14 -10
6 -7 21 23 104 7 20 11 15 35 -50z m1160 49 c0 -8 -11 -19 -25 -25 -23 -11
-25 -10 -25 13 0 20 5 25 25 25 14 0 25 -6 25 -13z m-70 -24 c0 -23 -9 -33
-48 -54 l-48 -27 -15 43 -16 43 46 10 c76 16 81 15 81 -15z m-126 -39 c9 -26
14 -49 12 -53 -3 -3 -21 -15 -40 -25 -54 -28 -66 -12 -41 56 17 49 30 67 47
68 3 0 13 -21 22 -46z m-526 20 c36 -25 29 -51 -15 -56 -21 -3 -39 -4 -40 -4
-5 4 21 76 26 76 4 0 17 -7 29 -16z m462 12 c0 -5 -31 -80 -35 -84 -2 -2 -17
11 -34 30 -17 18 -31 29 -31 23 0 -5 14 -25 30 -42 37 -39 33 -72 -11 -103
l-28 -21 -53 30 -53 30 3 50 c4 54 4 54 92 66 19 3 51 9 70 14 43 11 50 12 50
7z m283 -3 c3 -5 -13 -28 -34 -53 l-39 -45 0 37 c0 27 6 41 22 52 24 17 44 20
51 9z m-994 -57 l1 -53 -63 -7 c-34 -4 -64 -8 -66 -9 -2 -1 -7 8 -12 20 -7 19
-1 26 49 53 31 17 63 28 70 25 10 -3 12 0 8 10 -3 8 -2 15 3 15 5 0 9 -24 10
-54z m987 -91 c-24 -66 -48 -121 -55 -123 -7 -2 -11 20 -11 73 l0 77 47 54
c25 30 50 51 55 46 4 -4 -12 -62 -36 -127z m-506 70 l0 -46 -29 16 c-17 8 -33
20 -36 25 -9 15 12 38 38 43 12 2 23 5 25 6 1 0 2 -19 2 -44z m398 -75 c-13
-16 -26 -29 -29 -29 -5 -1 -33 74 -34 92 0 4 18 18 40 30 l40 23 3 -43 c2 -33
-2 -50 -20 -73z m-509 81 c11 -7 8 -16 -15 -46 l-28 -37 -12 33 c-7 19 -13 40
-13 47 -1 14 47 16 68 3z m-605 -27 c19 -20 26 -37 26 -67 0 -89 -98 -130
-161 -68 -38 39 -39 87 -3 130 35 42 98 44 138 5z m534 -22 c14 -42 14 -43
-20 -87 -25 -34 -40 -44 -61 -45 -34 0 -81 46 -71 69 3 9 13 35 21 58 12 35
19 42 46 46 62 8 70 4 85 -41z m-448 -3 c0 -4 -9 -9 -20 -12 -27 -7 -37 13
-15 30 15 10 20 10 27 0 4 -6 8 -15 8 -18z m310 22 c0 -5 -7 -25 -16 -46 l-15
-38 -29 34 c-16 19 -29 37 -30 41 0 4 15 9 33 11 17 2 38 5 45 5 6 1 12 -2 12
-7z m283 -16 c37 -19 37 -19 37 -82 0 -58 -2 -63 -28 -77 -49 -25 -77 -11
-101 51 l-21 55 31 39 c17 22 34 38 38 37 3 -2 23 -12 44 -23z m375 -31 c18
-48 18 -52 2 -72 -18 -21 -18 -21 -60 29 -23 28 -41 51 -39 53 17 12 74 44 75
43 1 -1 11 -25 22 -53z m-730 -8 c17 -24 32 -51 32 -60 0 -15 -7 -16 -47 -10
-27 3 -50 8 -53 11 -5 5 -8 86 -3 96 10 18 41 3 71 -37z m-88 -11 l0 -45 -42
6 c-55 9 -74 19 -81 43 -4 17 2 21 47 29 28 5 57 10 64 11 8 1 12 -14 12 -44z
m686 30 c-3 -10 1 -15 12 -16 9 0 34 -23 56 -51 34 -45 36 -52 23 -65 -13 -14
-22 -12 -75 17 -61 32 -70 52 -37 80 7 6 11 20 8 30 -3 12 0 20 7 20 7 0 10
-7 6 -15z m-822 -21 c10 -27 7 -31 -24 -26 -46 7 -39 32 11 41 4 0 10 -6 13
-15z m714 -39 c1 -1 -16 -14 -38 -29 l-40 -26 0 51 0 51 38 -23 c20 -12 38
-23 40 -24z m322 -16 c0 -67 -13 -75 -35 -22 -12 29 -12 35 6 58 11 14 22 25
25 25 2 0 4 -27 4 -61z m-571 9 c27 -72 27 -71 -20 -63 -24 4 -46 9 -48 11 -3
3 50 71 57 73 1 1 6 -9 11 -21z m-467 2 c14 0 44 -57 35 -67 -2 -2 -25 8 -50
23 -50 27 -66 61 -24 50 12 -3 29 -6 39 -6z m119 -20 c16 0 19 -8 19 -55 l0
-55 -39 19 c-24 13 -41 30 -45 45 -3 13 -9 32 -13 42 -5 15 -2 16 27 11 18 -4
41 -7 51 -7z m641 4 c4 -3 1 -20 -6 -37 -7 -18 -16 -39 -19 -49 -5 -14 -11
-15 -53 -4 -26 7 -49 17 -52 24 -2 6 18 25 45 41 46 30 73 37 85 25z m232 -26
c3 -13 6 -26 6 -30 0 -14 -27 -9 -40 7 -10 12 -10 18 0 30 17 21 27 19 34 -7z
m-1001 -23 c59 -32 63 -37 86 -100 36 -103 16 -100 -75 10 -73 88 -96 125 -79
125 4 0 34 -16 68 -35z m246 19 c4 -4 -3 -30 -30 -102 -8 -22 -10 -22 -31 -7
-19 13 -23 25 -23 71 l0 55 40 -7 c22 -3 42 -8 44 -10z m650 -51 c3 -2 -4 -12
-15 -23 -17 -16 -25 -17 -72 -8 -56 12 -56 10 -31 76 l9 22 52 -32 c29 -17 55
-33 57 -35z m-564 27 c20 -22 16 -31 -42 -98 -25 -30 -30 -32 -47 -19 -18 13
-18 15 -1 68 10 30 20 57 22 62 8 14 50 7 68 -13z m645 -32 c0 -11 -21 -10
-39 1 -13 8 -13 12 -1 26 13 16 15 16 27 -1 7 -10 13 -21 13 -26z m-472 9 c21
-17 13 -31 -30 -55 l-42 -23 -32 38 c-42 50 -31 66 40 57 28 -4 57 -11 64 -17z
m595 2 c92 -42 58 -184 -44 -184 -89 0 -128 106 -61 166 34 31 66 36 105 18z
m-489 -15 c12 -5 16 -21 16 -74 0 -59 -2 -68 -20 -73 -24 -6 -25 -4 -50 69
-19 54 -19 58 -2 70 19 15 33 17 56 8z m339 -30 c-3 -12 -30 -17 -49 -10 -12
5 -12 9 -2 26 11 17 15 18 33 6 11 -7 19 -17 18 -22z m-832 5 c24 -17 29 -28
29 -61 0 -24 -4 -38 -11 -36 -11 4 -62 118 -52 118 3 0 18 -9 34 -21z m276
-16 l24 -31 -47 -27 c-39 -23 -50 -25 -71 -16 l-24 11 38 50 c21 27 42 48 47
46 5 -1 20 -16 33 -33z m334 17 c4 0 -2 -25 -14 -55 -14 -40 -25 -55 -38 -55
-11 0 -22 0 -25 0 -5 0 -8 99 -5 124 1 2 18 0 39 -5 20 -5 40 -9 43 -9z m84
-15 c16 -3 45 -8 65 -11 85 -11 93 -28 20 -43 -69 -15 -76 -14 -57 7 30 33 18
37 -15 5 -19 -18 -49 -34 -70 -38 -21 -4 -38 -5 -38 -3 0 2 7 26 16 52 12 34
20 46 33 42 9 -2 29 -7 46 -11z m-267 -52 c12 -31 20 -58 19 -59 -1 -1 -13 -5
-27 -8 -21 -5 -30 1 -59 39 -19 25 -32 47 -30 49 7 6 64 35 70 36 3 0 16 -26
27 -57z m-354 24 c16 -11 17 -17 7 -36 -16 -30 -34 -22 -38 17 -4 35 3 39 31
19z m52 -44 c-3 -8 -6 -17 -6 -19 0 -2 -7 -4 -15 -4 -15 0 -21 31 -9 43 11 11
35 -5 30 -20z m221 -13 c31 -36 32 -39 13 -45 -38 -12 -75 -8 -108 12 l-33 20
43 26 c24 15 45 26 48 26 3 1 20 -17 37 -39z m484 6 c1 -15 -215 -136 -224
-126 -5 4 11 33 35 63 38 48 49 56 93 65 58 12 95 11 96 -2z m-657 -9 c17 -13
16 -14 -13 -27 -37 -15 -47 -9 -31 19 13 25 20 26 44 8z m-76 -32 c36 -30 45
-69 26 -113 -26 -64 -113 -75 -159 -20 -75 89 44 208 133 133z m530 -17 c-46
-56 -63 -61 -54 -17 7 39 29 59 64 59 24 0 24 0 -10 -42z m-389 13 c27 -21 25
-23 -51 -35 -48 -9 -56 7 -15 33 39 25 36 25 66 2z m331 15 c0 -15 -21 -56
-29 -56 -17 0 -19 49 -2 53 24 7 31 7 31 3z m-60 -31 c0 -16 -6 -25 -15 -25
-8 0 -15 2 -15 4 0 2 -3 11 -6 19 -3 10 2 17 13 20 10 3 19 5 21 6 1 0 2 -10
2 -24z m-47 -7 c9 -34 -3 -41 -30 -17 -22 22 -23 24 -6 30 28 11 30 11 36 -13z
m-31 -60 c-6 -6 -29 3 -63 24 l-54 33 35 6 c30 5 39 1 63 -24 18 -19 25 -33
19 -39z m-83 19 c97 -58 80 -68 -68 -42 -127 23 -133 25 -128 38 3 9 83 31
132 35 6 1 34 -13 64 -31z m207 -2 c68 -28 80 -129 19 -169 -28 -18 -77 -21
-106 -6 -23 13 -49 61 -49 93 0 40 52 93 93 96 4 1 23 -6 43 -14z"/>
<path d="M970 1591 c0 -5 5 -11 11 -13 9 -3 9 -10 0 -26 -6 -12 -8 -22 -3 -22
12 0 34 49 27 61 -8 12 -35 12 -35 0z"/>
<path d="M485 1489 c-8 -24 16 -56 33 -45 6 3 10 20 10 36 -1 36 -33 42 -43 9z"/>
<path d="M1388 1325 c-6 -31 15 -53 36 -36 19 16 8 61 -14 61 -11 0 -19 -10
-22 -25z"/>
<path d="M177 1133 c-13 -12 -7 -32 11 -36 16 -4 16 -5 -1 -6 -21 -1 -13 -21
9 -21 23 0 28 29 8 46 -11 9 -14 13 -7 10 6 -4 14 -2 18 4 7 11 -28 14 -38 3z"/>
<path d="M1553 874 c-7 -20 9 -49 28 -49 22 0 18 59 -4 63 -9 2 -20 -4 -24
-14z"/>
<path d="M180 619 c-13 -24 -13 -24 18 -33 23 -8 25 -4 16 32 -8 28 -20 28
-34 1z"/>
<path d="M1395 420 c-3 -5 -1 -10 4 -10 6 0 11 -12 11 -26 0 -14 4 -23 8 -20
11 6 3 66 -9 66 -4 0 -11 -4 -14 -10z"/>
<path d="M497 274 c-12 -12 -8 -26 5 -18 7 5 8 3 3 -6 -4 -7 -2 -16 6 -22 10
-6 6 -7 -11 -2 -22 6 -23 5 -12 -9 21 -24 44 -9 40 26 -3 30 -18 44 -31 31z"/>
<path d="M970 175 c0 -9 5 -13 10 -10 6 3 10 2 10 -4 0 -5 -4 -13 -10 -16 -17
-10 -11 -25 9 -25 15 0 19 7 18 32 -1 22 -8 34 -19 36 -11 2 -18 -3 -18 -13z"/>
</g>
</svg>
